HIERARCHY
ROOT SimulationBone
{
	OFFSET 0.000000 0.000000 0.000000
	CHANNELS 6 Xposition Yposition Zposition Zrotation Yrotation Xrotation 
	JOINT Hips
	{
		OFFSET 0.000000 0.000000 0.000000
		CHANNELS 6 Xposition Yposition Zposition Zrotation Yrotation Xrotation 
		JOINT RightUpLeg
		{
			OFFSET 0.103457 1.857818 10.548502
			CHANNELS 3 Zrotation Yrotation Xrotation
			JOINT RightLeg
			{
				OFFSET 43.500000 -0.000011 -0.000004
				CHANNELS 3 Zrotation Yrotation Xrotation
				JOINT RightFoot
				{
					OFFSET 42.372192 -0.000004 -0.000008
					CHANNELS 3 Zrotation Yrotation Xrotation
					JOINT RightToe
					{
						OFFSET 17.300014 0.000006 0.000001
						CHANNELS 3 Zrotation Yrotation Xrotation
						End Site
						{
							OFFSET 0.000000 0.000000 0.000000
						}
					}
				}
			}
		}
		JOINT LeftUpLeg
		{
			OFFSET 0.103457 1.857817 -10.548505
			CHANNELS 3 Zrotation Yrotation Xrotation
			JOINT LeftLeg
			{
				OFFSET 43.500046 -0.000004 0.000011
				CHANNELS 3 Zrotation Yrotation Xrotation
				JOINT LeftFoot
				{
					OFFSET 42.372257 0.000000 0.000015
					CHANNELS 3 Zrotation Yrotation Xrotation
					JOINT LeftToe
					{
						OFFSET 17.300003 -0.000000 0.000002
						CHANNELS 3 Zrotation Yrotation Xrotation
						End Site
						{
							OFFSET 0.000000 0.000000 0.000000
						}
					}
				}
			}
		}
		JOINT Spine
		{
			OFFSET 6.901961 -2.603721 -0.000001
			CHANNELS 3 Zrotation Yrotation Xrotation
			JOINT Spine1
			{
				OFFSET 12.588108 0.000002 -0.000001
				CHANNELS 3 Zrotation Yrotation Xrotation
				JOINT Spine2
				{
					OFFSET 12.343199 -0.000020 0.000006
					CHANNELS 3 Zrotation Yrotation Xrotation
					JOINT Neck
					{
						OFFSET 25.832905 0.000017 0.000000
						CHANNELS 3 Zrotation Yrotation Xrotation
						JOINT Head
						{
							OFFSET 11.766604 -0.000006 0.000004
							CHANNELS 3 Zrotation Yrotation Xrotation
							End Site
							{
								OFFSET 0.000000 0.000000 0.000000
							}
						}
					}
					JOINT RightShoulder
					{
						OFFSET 19.745903 -1.480350 6.000100
						CHANNELS 3 Zrotation Yrotation Xrotation
						JOINT RightArm
						{
							OFFSET 11.284130 -0.000016 -0.000016
							CHANNELS 3 Zrotation Yrotation Xrotation
							JOINT RightForeArm
							{
								OFFSET 33.000046 0.000004 0.000031
								CHANNELS 3 Zrotation Yrotation Xrotation
								JOINT RightHand
								{
									OFFSET 25.199999 0.000027 0.000001
									CHANNELS 3 Zrotation Yrotation Xrotation
									End Site
									{
										OFFSET 0.000000 0.000000 0.000000
									}
								}
							}
						}
					}
					JOINT LeftShoulder
					{
						OFFSET 19.746094 -1.480375 -6.000080
						CHANNELS 3 Zrotation Yrotation Xrotation
						JOINT LeftArm
						{
							OFFSET 11.284131 -0.000016 -0.000017
							CHANNELS 3 Zrotation Yrotation Xrotation
							JOINT LeftForeArm
							{
								OFFSET 33.000095 0.000009 0.000020
								CHANNELS 3 Zrotation Yrotation Xrotation
								JOINT LeftHand
								{
									OFFSET 25.199789 0.000132 0.000423
									CHANNELS 3 Zrotation Yrotation Xrotation
									End Site
									{
										OFFSET 0.000000 0.000000 0.000000
									}
								}
							}
						}
					}
				}
			}
		}
	}
}
MOTION
Frames: 10
Frame Time: 0.033333
-315.297547 0.000000 -467.299220 0.000000 -28.188915 0.000000 2.663073 89.042313 1.734785 100.117474 -0.728032 -171.913110 165.485061 -12.634294 177.364290 -34.965275 -4.992823 5.646546 73.833191 -4.909558 -3.169841 21.454555 0.003107 0.000018 -165.119782 8.264695 177.354222 -43.632915 2.983932 -4.202048 79.412745 4.217008 5.121623 21.454539 -0.003095 0.000001 9.144889 -0.112534 1.558587 8.272419 -0.336015 3.105117 7.954813 -0.317402 3.107079 22.856248 4.188981 7.501651 -11.744962 -14.730479 12.482969 -143.085619 -66.486619 -39.548301 19.710912 49.075500 19.774007 -32.310080 -15.211649 1.316419 13.795859 -9.571741 -15.751688 102.971775 87.083887 -75.556461 -8.659327 -43.623889 5.136717 -34.770499 15.133194 -1.338559 15.174017 12.037033 -8.166990 
-319.129771 0.000000 -466.166169 0.000000 -25.106253 0.000000 2.902624 88.306107 0.476630 100.524823 0.023018 -175.195511 164.001735 -13.387203 178.032146 -34.893210 -4.858129 5.497895 73.423058 -5.150631 -4.213498 21.454560 0.003108 0.000017 -163.930496 9.429704 177.351312 -39.522415 3.196773 -4.033885 76.203785 3.523789 2.559303 21.454550 -0.003090 -0.000001 9.242601 0.217392 1.778353 8.477112 0.304101 3.567797 8.159689 0.325491 3.565892 22.616717 5.766586 7.044904 -10.485901 -14.161391 11.597940 -146.275017 -66.929795 -36.233983 19.372693 53.244005 22.296203 -28.910999 -14.869971 1.226791 15.144660 -9.233608 -14.304177 96.531036 85.211036 -82.162791 -17.608593 -44.058593 9.041718 -32.154628 14.502623 -1.240950 15.274065 10.790957 -7.835833 
-322.800203 0.000000 -465.122935 0.000000 -22.022989 0.000000 2.657237 87.568993 -0.214535 100.587973 0.428862 -178.537428 162.526086 -13.887299 179.167883 -33.505872 -4.941884 4.959862 71.820792 -5.288429 -5.581247 21.454558 0.003107 0.000017 -163.958227 10.100202 175.626007 -35.915464 3.897804 -6.009871 77.240799 4.588659 1.516003 21.454557 -0.003094 0.000001 9.422741 0.408562 1.899665 8.844023 0.670868 3.824987 8.526654 0.693807 3.820865 22.336520 6.833159 6.763726 -8.904372 -13.231230 10.789424 -149.324615 -67.418079 -33.064492 18.721793 56.678996 25.817586 -28.139118 -14.646190 1.198284 15.119805 -5.296980 -6.872565 98.098298 83.525974 -80.745888 -28.476432 -43.282697 12.964538 -29.247140 13.573700 -1.123752 15.704644 8.664899 -10.061052 
-326.313468 0.000000 -464.166805 0.000000 -18.970334 0.000000 2.087497 87.054977 -0.520343 100.264188 1.153249 178.717553 161.109614 -14.627101 -179.146873 -30.373527 -4.962108 4.277770 68.666057 -5.485790 -6.986118 21.454560 0.003109 0.000017 -164.751826 9.093094 173.010836 -33.637001 4.717763 -6.315351 81.232526 4.415228 0.467293 21.454553 -0.003092 0.000001 9.648873 0.656868 1.890158 9.304803 1.159695 3.827142 8.987395 1.182633 3.820074 22.020240 7.108827 6.685529 -7.513898 -12.480800 10.324559 -151.660102 -67.787107 -30.639115 17.565233 59.063111 29.917325 -30.727665 -14.921959 1.265248 13.327309 2.342817 6.621228 100.627128 81.886639 -78.364044 -39.559445 -42.041710 16.910459 -27.691494 12.787261 -1.045043 16.254187 6.555157 -15.881576 
-329.674195 0.000000 -463.295065 0.000000 -15.978864 0.000000 1.423046 86.846184 -0.612973 99.353701 2.388209 176.950479 159.940518 -15.690095 -177.183781 -25.100085 -4.720545 3.677199 64.076627 -5.869982 -8.176745 21.454558 0.003108 0.000018 -166.099805 6.874300 171.608967 -31.861285 6.138551 -4.234973 86.455858 2.738410 -0.094136 21.454543 -0.003094 0.000000 9.800072 1.059529 1.794095 9.620264 1.966267 3.670559 9.302674 1.988248 3.658629 21.880642 6.966486 6.671885 -6.851173 -12.487182 10.239131 -153.208684 -68.162009 -29.028403 16.074586 60.569783 33.696482 -36.118754 -15.844926 1.443030 11.013962 10.692470 22.675053 101.442776 80.385992 -77.682344 -49.544816 -41.153061 19.414237 -28.093680 12.401110 -1.027212 16.200541 5.568331 -23.915545 
-332.887011 0.000000 -462.505003 0.000000 -13.077107 0.000000 0.746631 86.864464 -0.584077 98.052132 3.484509 175.946290 159.345199 -16.663802 -175.393630 -18.479852 -4.264001 2.610521 62.160807 -5.922629 -9.799505 21.454558 0.003102 0.000016 -167.383334 4.221497 171.764177 -29.364766 6.585330 -1.928853 90.934086 1.172023 0.267310 21.454560 -0.003090 -0.000001 9.835420 1.486647 1.677016 9.703898 2.827444 3.473850 9.386024 2.848219 3.456722 21.981181 6.858878 6.530881 -6.783426 -13.105131 10.245809 -154.409800 -68.651112 -27.775304 14.841602 61.621605 36.223693 -42.960613 -16.811607 1.685320 9.078307 16.258208 32.764691 101.172020 79.325394 -78.048196 -58.148686 -40.837045 19.046565 -30.042406 12.383711 -1.061992 14.549397 5.951801 -31.839091 
-335.956541 0.000000 -461.793906 0.000000 -10.290367 0.000000 0.219222 87.051773 -0.526521 97.087037 4.082128 175.409663 159.005288 -17.058899 -174.105183 -13.148649 -4.199918 0.151165 64.550991 -2.434744 -6.306753 21.454558 0.003114 0.000018 -168.458379 1.845903 171.863078 -26.931789 6.483306 -0.118822 93.500406 -0.145968 -0.443016 21.454553 -0.003092 0.000000 9.872910 1.829959 1.556655 9.787844 3.521701 3.264106 9.469650 3.541200 3.242780 22.203318 6.842486 6.200565 -6.775809 -13.613212 10.023741 -155.671090 -69.124212 -26.462094 13.995099 62.486293 36.956207 -49.714276 -16.941311 1.900320 8.085635 17.831425 34.226413 101.713388 78.678165 -77.564851 -65.291137 -40.907256 15.850446 -33.024897 12.803923 -1.149435 11.248701 6.928634 -38.347141 
-338.887414 0.000000 -461.159059 0.000000 -7.639906 0.000000 -0.072969 87.668518 -0.490686 96.799239 4.366518 175.324668 158.364889 -16.996994 -174.411285 -11.524263 -4.127514 -5.305908 68.288935 2.475484 -4.414068 21.454558 0.003108 0.000018 -169.696911 -0.253692 171.766540 -25.823344 6.203532 1.749869 92.744291 -1.432812 -0.686029 21.454550 -0.003095 -0.000001 9.980791 2.104155 1.416861 10.008846 4.077854 3.012449 9.690331 4.095830 2.987749 22.557292 6.753583 5.703389 -6.614543 -13.441790 9.418728 -157.005654 -69.510910 -25.076705 12.671405 63.215696 36.206099 -55.064746 -16.293493 2.038703 8.398356 15.949544 34.536230 104.001016 78.085940 -75.329200 -70.571406 -41.540008 11.670404 -36.966001 13.602065 -1.290518 7.327478 7.108338 -43.826691 
-341.684256 0.000000 -460.597750 0.000000 -5.142526 0.000000 -0.265569 88.524300 -0.465709 96.932292 3.644052 175.755849 157.979038 -15.647702 -177.977928 -13.136295 -4.245554 -10.588070 68.045152 5.673369 -6.315954 21.454553 0.003108 0.000018 -171.084914 -1.038696 172.844549 -25.604426 5.902833 3.102124 90.934413 -2.313779 -0.396216 21.454548 -0.003093 0.000000 10.071700 2.155443 1.217034 10.185512 4.195363 2.620986 9.866816 4.210974 2.595575 23.058464 6.617223 5.016250 -6.449481 -12.548561 8.416143 -158.260729 -70.124405 -23.770715 10.559102 63.688208 35.383413 -58.372224 -15.828280 2.126737 10.150906 12.852085 42.474990 107.369051 77.399027 -72.017870 -73.792571 -43.058571 8.895695 -41.905885 14.151898 -1.453197 3.922286 5.205541 -49.279460 
-344.351695 0.000000 -460.107265 0.000000 -2.810517 0.000000 -0.280616 89.244591 -0.525604 97.045068 2.297268 176.498244 156.531297 -13.881805 176.636984 -19.519422 -3.432550 -9.435584 69.115668 4.961113 -5.976743 21.454560 0.003110 0.000017 -172.960949 -0.839996 175.356159 -26.552475 5.330512 3.706937 89.452064 -2.670287 -0.043738 21.454551 -0.003094 0.000000 10.034979 2.026414 1.057108 10.102682 3.952774 2.288582 9.784037 3.966383 2.264642 23.411937 6.563286 4.129121 -6.406542 -11.297613 7.128105 -159.359638 -71.286015 -22.619107 8.419413 63.774815 35.483915 -59.881402 -15.902359 2.188004 12.318662 10.436636 55.079779 110.560791 76.785178 -68.872595 -75.297037 -45.335565 8.151075 -47.553915 13.716499 -1.588182 1.987253 1.252182 -54.312927 
